<?xml version="1.0"?>
<svg xmlns="http://www.w3.org/2000/svg" height="512px" version="1.1" viewBox="0 0 512 512.00075" width="512px">
<g id="surface1">
<path d="M 486.394531 4.394531 L 416.757812 74.03125 L 321.789062 88.296875 C 318.777344 88.75 315.675781 90.257812 313.410156 92.523438 C 289.0625 116.871094 136.132812 269.800781 111.886719 294.050781 L 101.277344 283.441406 C 95.421875 277.582031 85.921875 277.582031 80.066406 283.441406 C 74.207031 289.300781 74.207031 298.796875 80.066406 304.65625 C 90 314.589844 101.917969 326.507812 111.886719 336.476562 L 36.214844 412.148438 L 25.605469 401.539062 C 19.75 395.683594 10.25 395.683594 4.394531 401.539062 C -1.464844 407.398438 -1.464844 416.894531 4.394531 422.753906 L 89.246094 507.605469 C 95.105469 513.464844 104.601562 513.464844 110.460938 507.605469 C 116.320312 501.75 116.320312 492.25 110.460938 486.394531 L 99.851562 475.785156 L 175.523438 400.113281 C 178.710938 403.300781 204.148438 428.738281 207.34375 431.933594 C 213.203125 437.792969 222.699219 437.792969 228.558594 431.933594 C 234.414062 426.074219 234.414062 416.578125 228.558594 410.722656 L 217.949219 400.113281 C 229.5 388.566406 407.898438 210.167969 419.476562 198.589844 C 419.488281 198.578125 419.496094 198.566406 419.507812 198.554688 C 421.8125 196.238281 423.253906 193.203125 423.703125 190.210938 L 437.96875 95.242188 L 507.605469 25.605469 C 513.464844 19.75 513.464844 10.25 507.605469 4.394531 C 501.75 -1.464844 492.25 -1.464844 486.394531 4.394531 Z M 398.453125 156.351562 L 355.648438 113.546875 L 406.019531 105.980469 Z M 154.3125 294.046875 L 164.917969 304.652344 C 170.773438 310.511719 180.273438 310.511719 186.132812 304.652344 C 191.988281 298.796875 191.988281 289.300781 186.132812 283.441406 L 175.523438 272.835938 L 196.738281 251.621094 L 260.375 315.261719 L 196.738281 378.898438 L 133.097656 315.261719 Z M 78.640625 454.574219 L 57.425781 433.359375 L 133.097656 357.6875 L 154.3125 378.902344 Z M 281.589844 294.050781 L 217.949219 230.410156 L 239.164062 209.195312 L 249.769531 219.804688 C 255.628906 225.660156 265.125 225.660156 270.984375 219.804688 C 276.839844 213.945312 276.839844 204.449219 270.984375 198.589844 L 260.378906 187.984375 L 281.59375 166.769531 L 313.410156 198.589844 C 319.269531 204.449219 328.765625 204.449219 334.625 198.589844 C 340.484375 192.734375 340.484375 183.234375 334.625 177.378906 L 302.804688 145.558594 L 324.019531 124.34375 L 387.65625 187.984375 Z M 281.589844 294.050781 " style=" fill-rule:nonzero;fill-opacity:1;" stroke="#FFFFFF" fill="#FFFFFF"/>
</g>
</svg>
